<svg xmlns="http://www.w3.org/2000/svg" viewBox="0 0 672.67 137.96"><defs><style>.cls-1{fill:none;stroke:red;stroke-miterlimit:10;stroke-width:11px;}.cls-2{fill:#fff;}</style></defs><g id="Layer_2" data-name="Layer 2"><g id="Layer_1-2" data-name="Layer 1"><path class="cls-1" d="M8.07,30.82,24.41,58.24S61.9,48.83,94,65.31s37.74,45.17,37.74,45.17l30.79-7.55S151.05,54,101,33.8C51.87,14,8.07,30.82,8.07,30.82Z"/><path class="cls-1" d="M22.83,58.24s-9.49,52.2,39,69.6c46.61,16.72,69.93-17.36,69.93-17.36"/><path class="cls-1" d="M39.08,24.28s27-31.43,70.23-13c47,20.06,37.93,59.62,37.93,59.62"/><circle class="cls-1" cx="76.62" cy="91.99" r="13.18"/><path class="cls-2" d="M233.57,93v12c-22,0-28-8.44-27.38-20.21V49.31L192.57,49V36.66H222L221.57,85C221.57,90,225.57,93,233.57,93Z"/><path class="cls-2" d="M241,80.48a26,26,0,0,1,1.84-9.83,23.13,23.13,0,0,1,5.27-8,24.54,24.54,0,0,1,8.24-5.32,28.76,28.76,0,0,1,10.79-1.94,31.52,31.52,0,0,1,11.13,1.84,22.32,22.32,0,0,1,8.14,5.17,21.88,21.88,0,0,1,5,8,29.05,29.05,0,0,1,1.69,10.08,27.41,27.41,0,0,1-1.74,9.84,23.21,23.21,0,0,1-5.07,8,23.89,23.89,0,0,1-8.14,5.42,28.43,28.43,0,0,1-10.88,2A32.36,32.36,0,0,1,256.34,104a21.77,21.77,0,0,1-13.46-13A28.53,28.53,0,0,1,241,80.48Zm16.6-.1q0,13.13,9.14,13.12a12.68,12.68,0,0,0,4.87-.79,6.67,6.67,0,0,0,3-2.39,9.94,9.94,0,0,0,1.49-4.07,38.29,38.29,0,0,0,.4-5.87,29.89,29.89,0,0,0-.4-4.92,11.15,11.15,0,0,0-1.49-4.07,7.63,7.63,0,0,0-3-2.73,10.46,10.46,0,0,0-4.87-1c-3.45,0-5.83,1.13-7.16,3.38S257.64,76.41,257.64,80.38Z"/><path class="cls-2" d="M299.88,80.48a26,26,0,0,1,1.84-9.83,23,23,0,0,1,5.27-8,24.54,24.54,0,0,1,8.24-5.32A28.74,28.74,0,0,1,326,55.44a31.44,31.44,0,0,1,11.13,1.84,22.28,22.28,0,0,1,8.15,5.17,21.88,21.88,0,0,1,5,8A29.05,29.05,0,0,1,352,80.48a27.41,27.41,0,0,1-1.74,9.84,23.21,23.21,0,0,1-5.07,8,23.89,23.89,0,0,1-8.14,5.42,28.48,28.48,0,0,1-10.89,2A32.34,32.34,0,0,1,315.18,104a22.48,22.48,0,0,1-8.24-5,22.19,22.19,0,0,1-5.22-8A28.53,28.53,0,0,1,299.88,80.48Zm16.6-.1q0,13.13,9.14,13.12a12.72,12.72,0,0,0,4.87-.79,6.72,6.72,0,0,0,3-2.39A9.94,9.94,0,0,0,335,86.25a38.29,38.29,0,0,0,.4-5.87,29.89,29.89,0,0,0-.4-4.92,11.15,11.15,0,0,0-1.49-4.07,7.7,7.7,0,0,0-3-2.73,10.48,10.48,0,0,0-4.87-1c-3.45,0-5.83,1.13-7.16,3.38S316.48,76.41,316.48,80.38Z"/><path class="cls-2" d="M409.79,104.73H390.61L379.48,86.54,376.57,86l-.17,18.72H360.6V36.66h15.8V74l2.88.21,10.34-17.29h17.19L392.6,79.39Z"/><path class="cls-2" d="M441.71,93.5A20,20,0,0,0,448.77,92a25.7,25.7,0,0,0,7-4l4,12.12a47.46,47.46,0,0,1-10.29,4.07,41.25,41.25,0,0,1-10.88,1.49,32.26,32.26,0,0,1-9.29-1.34,21.19,21.19,0,0,1-8-4.37,21.43,21.43,0,0,1-5.56-7.9,30,30,0,0,1-2.09-11.83,25.93,25.93,0,0,1,2-10.38,23.83,23.83,0,0,1,5.26-7.8,23.5,23.5,0,0,1,7.56-4.92,23.18,23.18,0,0,1,8.84-1.74,31.1,31.1,0,0,1,9.39,1.34,16.6,16.6,0,0,1,7.15,4.43,20.52,20.52,0,0,1,4.53,8,40.08,40.08,0,0,1,1.59,12.18V83c0,.56,0,1.14-.1,1.74h-30a11.86,11.86,0,0,0,1.64,4.42,8.39,8.39,0,0,0,2.73,2.68,10.44,10.44,0,0,0,3.53,1.29A22,22,0,0,0,441.71,93.5ZM444,75.12q.3-4.87-1.34-6.81a6.23,6.23,0,0,0-5-1.94A7.62,7.62,0,0,0,432,68.31q-1.93,1.93-2.43,6.81Z"/><path class="cls-2" d="M498.28,93.5A19.94,19.94,0,0,0,505.34,92a25.91,25.91,0,0,0,7-4l4,12.12A47.58,47.58,0,0,1,506,104.23a41.38,41.38,0,0,1-10.89,1.49,32.31,32.31,0,0,1-9.29-1.34,21.19,21.19,0,0,1-8-4.37,21.43,21.43,0,0,1-5.56-7.9,30,30,0,0,1-2.09-11.83,25.93,25.93,0,0,1,2-10.38,23.7,23.7,0,0,1,5.27-7.8,23.66,23.66,0,0,1,16.39-6.66,31,31,0,0,1,9.39,1.34,16.69,16.69,0,0,1,7.16,4.43,20.63,20.63,0,0,1,4.52,8,40.08,40.08,0,0,1,1.59,12.18V83c0,.56,0,1.14-.1,1.74h-30A12,12,0,0,0,488,89.18a8.39,8.39,0,0,0,2.73,2.68,10.44,10.44,0,0,0,3.53,1.29A22,22,0,0,0,498.28,93.5Zm2.29-18.38q.3-4.87-1.34-6.81a6.22,6.22,0,0,0-5-1.94,7.6,7.6,0,0,0-5.61,1.94q-2,1.93-2.44,6.81Z"/><path class="cls-2" d="M558.76,80.48a26.16,26.16,0,0,1,1.84-9.83,23.13,23.13,0,0,1,5.27-8,24.49,24.49,0,0,1,8.25-5.32,28.67,28.67,0,0,1,10.78-1.94A31.52,31.52,0,0,1,596,57.28a22.32,22.32,0,0,1,8.14,5.17,21.75,21.75,0,0,1,5,8,29.05,29.05,0,0,1,1.69,10.08,27.41,27.41,0,0,1-1.74,9.84,23.18,23.18,0,0,1-5.06,8,23.94,23.94,0,0,1-8.15,5.42,28.43,28.43,0,0,1-10.88,2A32.3,32.3,0,0,1,574.07,104,21.76,21.76,0,0,1,560.6,91,28.73,28.73,0,0,1,558.76,80.48Zm16.6-.1q0,13.13,9.14,13.12a12.68,12.68,0,0,0,4.87-.79,6.67,6.67,0,0,0,3-2.39,9.8,9.8,0,0,0,1.49-4.07,38.29,38.29,0,0,0,.4-5.87,29.89,29.89,0,0,0-.4-4.92,11,11,0,0,0-1.49-4.07,7.63,7.63,0,0,0-3-2.73,10.46,10.46,0,0,0-4.87-1c-3.45,0-5.83,1.13-7.16,3.38S575.36,76.41,575.36,80.38Z"/><path class="cls-2" d="M620.6,80.48a26,26,0,0,1,1.84-9.83,23.13,23.13,0,0,1,5.27-8A24.54,24.54,0,0,1,636,57.38a28.76,28.76,0,0,1,10.79-1.94,31.52,31.52,0,0,1,11.13,1.84A22.32,22.32,0,0,1,666,62.45a21.88,21.88,0,0,1,5,8,29.05,29.05,0,0,1,1.69,10.08,27.41,27.41,0,0,1-1.74,9.84,23.21,23.21,0,0,1-5.07,8,23.89,23.89,0,0,1-8.14,5.42,28.45,28.45,0,0,1-10.89,2A32.34,32.34,0,0,1,635.9,104a21.77,21.77,0,0,1-13.46-13A28.53,28.53,0,0,1,620.6,80.48Zm16.6-.1q0,13.13,9.14,13.12a12.68,12.68,0,0,0,4.87-.79,6.72,6.72,0,0,0,3-2.39,9.94,9.94,0,0,0,1.49-4.07,38.29,38.29,0,0,0,.4-5.87,29.89,29.89,0,0,0-.4-4.92,11.15,11.15,0,0,0-1.49-4.07,7.7,7.7,0,0,0-3-2.73,10.46,10.46,0,0,0-4.87-1c-3.45,0-5.83,1.13-7.16,3.38S637.2,76.41,637.2,80.38Z"/><path class="cls-2" d="M553.78,92.69v12c-22,0-28-8.45-27.37-20.21V49l-13.63-.29V36.34h29.43l-.43,48.35C541.78,89.69,545.78,92.69,553.78,92.69Z"/></g></g></svg>